<?xml version="1.0" encoding="iso-8859-1"?>
<!-- Generator: Adobe Illustrator 21.1.0, SVG Export Plug-In . SVG Version: 6.00 Build 0)  -->
<svg xmlns="http://www.w3.org/2000/svg" xmlns:xlink="http://www.w3.org/1999/xlink" version="1.1" id="Layer_1" x="0px" y="0px" viewBox="0 0 48 48" style="enable-background:new 0 0 48 48;" xml:space="preserve" width="100px" height="100px">
<path style="fill:#FFF9C4;" d="M48,24c0,7.18-10.747,13-23.999,13C10.745,37,0,31.18,0,24s10.745-13,24.001-13  C37.253,11,48,16.82,48,24L48,24z"/>
<ellipse style="fill:#00695C;" cx="23.992" cy="23.99" rx="22" ry="11"/>
<path style="fill:#FFF9C4;" d="M14.129,21.556c-0.043,0.137-0.39,0.102-0.39,0.102h-1.505c0,0,1.395-3.88,1.507-4.174  c0.199-0.52,0.318-0.484,0.318-0.484H11.98c0.257,0.129,0.029,0.635,0.029,0.635s-1.665,4.839-1.781,5.081  c-0.116,0.242-0.203,0.273-0.203,0.273h3.6L14.129,21.556z"/>
<polygon style="fill:#FFF9C4;" points="38,19 34.037,19 33.554,20.402 36.119,20.402 33.193,21.431 33,22 37.502,20.5 "/>
<path style="fill:#FFF9C4;" d="M21.705,22.607c0.101-0.273,1-2.828,1-2.828l0.391,3.204h1.536l2.013-5.699  c0,0,0.082-0.267,0.195-0.267l-1.632-0.005c0,0,0.047,0.197-0.011,0.348c-0.058,0.151-0.985,2.737-0.985,2.737l-0.362-3.085h-1.753  c0,0,0.091,0.151,0.033,0.317c-0.047,0.135-1.858,5.323-1.858,5.323s-0.116,0.331-0.218,0.331h1.695  C21.748,22.983,21.632,22.803,21.705,22.607z"/>
<polygon style="fill:#FFF9C4;" points="13,25 8.497,26.501 8,28 11.963,28 12.445,26.598 9.88,26.598 12.806,25.569 "/>
<path style="fill:#FFF9C4;" d="M31.427,28.647l0.348-0.969h1.274c0,0,0.27-0.02,0.329,0.061l0.521-1.532  c0,0-0.038,0.138-0.386,0.138c-0.347,0-1.236,0-1.236,0l0.368-1.07h1.564c0,0,0.212-0.031,0.289,0.141L35,24l-3.766,0  c0,0,0.135,0.125-0.039,0.63c-0.174,0.505-1.7,4.805-1.7,4.805S29.225,30,29.148,30c-0.078,0,3.882,0,3.882,0l0.464-1.434  c0,0-0.058,0.081-0.425,0.081C32.701,28.647,31.427,28.647,31.427,28.647z"/>
<path style="fill:#FFF9C4;" d="M30.906,24.003h-2.223c0,0,0.174,0.121,0.039,0.343c-0.135,0.222-2.111,3.312-2.111,3.312  l0.025-3.116c0,0-0.004-0.5,0.188-0.542l-1.956,0.003c0,0,0.144,0.081,0.144,0.464c0,0.065,0,0.258,0,0.533c0,1.345,0,4.657,0,4.657  S24.992,29.941,24.89,30h1.553c0,0,0-0.121,0.154-0.323c0.155-0.202,3.381-4.725,3.381-4.725S30.713,24.003,30.906,24.003z"/>
<path style="fill:#FFF9C4;" d="M39.856,26.315c0.741-2.432-1.618-2.314-1.618-2.314h-2.376c0.174,0.202,0.039,0.626,0.039,0.626  s-1.549,4.463-1.666,4.807c-0.116,0.344-0.338,0.563-0.338,0.563L35.872,30c-0.144,0.003-0.044-0.368-0.044-0.368l0.606-1.713  c0,0,0.817,1.737,0.875,1.859c0.058,0.122,0.029,0.222,0.029,0.222h2.097c-0.193,0-0.406-0.384-0.406-0.384l-1.008-1.891  C39.432,27.724,39.856,26.315,39.856,26.315z M38.18,26.061c-0.217,0.581-0.927,0.525-0.927,0.525h-0.367l0.386-1.191h0.524  C37.796,25.395,38.436,25.376,38.18,26.061z"/>
<path style="fill:#FFF9C4;" d="M29.73,17.014h-1.926c0,0.001,0.144,0.242-0.044,0.801c-0.188,0.56-1.666,4.718-1.666,4.718  S25.977,22.924,25.819,23l2.318-0.003c0,0,2.81,0.108,3.68-2.975C31.816,20.023,32.917,16.983,29.73,17.014z M29.933,20.279  c-0.491,1.248-1.221,1.338-1.615,1.338c-0.26,0-0.268,0.002-0.268,0.002l1.13-3.321h0.435C29.614,18.299,30.74,18.229,29.933,20.279  z"/>
<path style="fill:#FFF9C4;" d="M19.857,22.993c0,0-0.138-0.081-0.163-0.319l-0.233-5.262c0,0-0.01-0.336,0.143-0.407h-1.84  c0,0,0.129,0.166-0.117,0.544c-0.246,0.378-3.389,5.242-3.389,5.242s-0.062,0.125-0.221,0.196h1.858c0,0-0.006-0.149,0.043-0.245  c0.088-0.175,0.319-0.596,0.319-0.596h1.87l0.004,0.526c0,0,0.01,0.181-0.128,0.321H19.857z M17.059,20.796l1.033-1.754l0.015,1.754  H17.059z"/>
<path style="fill:#FFF9C4;" d="M18.453,26.262C19.148,23.94,16.808,24,16.808,24h-2.395c0.174,0.202,0.038,0.626,0.038,0.626  s-1.487,4.446-1.603,4.79c-0.116,0.343-0.329,0.583-0.329,0.583S14.512,30,14.413,30c-0.058,0-0.058-0.195-0.058-0.195l0.68-1.886  c0,0,0.846,1.737,0.905,1.858C15.997,29.898,15.968,30,15.968,30h2.025c-0.193,0-0.392-0.384-0.392-0.384l-1.008-1.892  C18.002,27.724,18.453,26.262,18.453,26.262z M16.801,26.058c-0.264,0.594-0.979,0.528-0.979,0.528h-0.367l0.393-1.206  c0,0,0.211-0.003,0.399-0.003C17.11,25.377,16.801,26.058,16.801,26.058z"/>
<path style="fill:#FFF9C4;" d="M22.209,24.025c-1.848,0-3.053,1.396-3.365,3.131c-0.286,1.596,0.62,2.869,2.113,2.869  c2.09,0,3.334-2.041,3.334-3.506C24.291,24.984,23.657,24.025,22.209,24.025z M22.483,27.205c-0.299,1.193-0.873,1.567-1.394,1.471  c-0.709-0.131-0.587-1.226-0.472-1.731c0.251-1.106,0.869-1.636,1.331-1.58C22.1,25.383,22.937,25.399,22.483,27.205z"/>
</svg>
